<mxfile host="app.diagrams.net" modified="2023-11-23T20:49:13.666Z" agent="Mozilla/5.0 (Windows NT 10.0; Win64; x64) AppleWebKit/537.36 (KHTML, like Gecko) Chrome/119.0.0.0 Safari/537.36" etag="SPZPUPgddYk1FfEzFyKy" version="22.1.3" type="device">
  <diagram name="Page-1" id="iL6ZIfmkSBzqLlE6i0pb">
    <mxGraphModel dx="1221" dy="662" grid="1" gridSize="10" guides="1" tooltips="1" connect="1" arrows="1" fold="1" page="1" pageScale="1" pageWidth="850" pageHeight="1100" math="0" shadow="0">
      <root>
        <mxCell id="0" />
        <mxCell id="1" parent="0" />
        <mxCell id="d2dQK03Ckl_er2ROghQx-3" value="IS A" style="edgeStyle=orthogonalEdgeStyle;rounded=0;orthogonalLoop=1;jettySize=auto;html=1;exitX=0.25;exitY=1;exitDx=0;exitDy=0;entryX=0.5;entryY=0;entryDx=0;entryDy=0;" parent="1" source="d2dQK03Ckl_er2ROghQx-1" target="d2dQK03Ckl_er2ROghQx-2" edge="1">
          <mxGeometry relative="1" as="geometry" />
        </mxCell>
        <mxCell id="d2dQK03Ckl_er2ROghQx-7" style="edgeStyle=orthogonalEdgeStyle;rounded=0;orthogonalLoop=1;jettySize=auto;html=1;exitX=0.25;exitY=0;exitDx=0;exitDy=0;entryX=0.5;entryY=1;entryDx=0;entryDy=0;" parent="1" source="d2dQK03Ckl_er2ROghQx-1" target="d2dQK03Ckl_er2ROghQx-5" edge="1">
          <mxGeometry relative="1" as="geometry" />
        </mxCell>
        <mxCell id="d2dQK03Ckl_er2ROghQx-15" value="posteaza" style="edgeStyle=orthogonalEdgeStyle;rounded=0;orthogonalLoop=1;jettySize=auto;html=1;exitX=1;exitY=0.5;exitDx=0;exitDy=0;entryX=0;entryY=0.5;entryDx=0;entryDy=0;" parent="1" source="d2dQK03Ckl_er2ROghQx-1" target="d2dQK03Ckl_er2ROghQx-14" edge="1">
          <mxGeometry relative="1" as="geometry" />
        </mxCell>
        <mxCell id="d2dQK03Ckl_er2ROghQx-18" value="efectueaza" style="edgeStyle=orthogonalEdgeStyle;rounded=0;orthogonalLoop=1;jettySize=auto;html=1;exitX=1;exitY=0;exitDx=0;exitDy=0;entryX=0;entryY=0.5;entryDx=0;entryDy=0;" parent="1" source="d2dQK03Ckl_er2ROghQx-1" target="d2dQK03Ckl_er2ROghQx-11" edge="1">
          <mxGeometry relative="1" as="geometry" />
        </mxCell>
        <mxCell id="d2dQK03Ckl_er2ROghQx-1" value="&lt;b&gt;Utilizatori&lt;br&gt;&lt;br&gt;id#&lt;br&gt;nume&lt;br&gt;email&lt;br&gt;parola&lt;br&gt;data_inregistrare&lt;br&gt;&lt;br&gt;&lt;/b&gt;" style="rounded=0;whiteSpace=wrap;html=1;align=left;" parent="1" vertex="1">
          <mxGeometry x="140" y="330" width="170" height="122.5" as="geometry" />
        </mxCell>
        <mxCell id="d2dQK03Ckl_er2ROghQx-2" value="&lt;b&gt;Admini&lt;br&gt;&lt;br&gt;drepturi/rang&lt;br&gt;&lt;/b&gt;" style="rounded=0;whiteSpace=wrap;html=1;align=left;" parent="1" vertex="1">
          <mxGeometry x="80" y="530" width="120" height="60" as="geometry" />
        </mxCell>
        <mxCell id="d2dQK03Ckl_er2ROghQx-5" value="&lt;b&gt;Conectari&lt;br&gt;&lt;br&gt;id#&lt;br&gt;moment (???)&lt;br&gt;ip&lt;br&gt;&lt;/b&gt;" style="rounded=0;whiteSpace=wrap;html=1;align=left;" parent="1" vertex="1">
          <mxGeometry x="100" y="75" width="170" height="100" as="geometry" />
        </mxCell>
        <mxCell id="d2dQK03Ckl_er2ROghQx-8" value="M(1)" style="text;html=1;strokeColor=none;fillColor=none;align=center;verticalAlign=middle;whiteSpace=wrap;rounded=0;" parent="1" vertex="1">
          <mxGeometry x="140" y="180" width="45" height="20" as="geometry" />
        </mxCell>
        <mxCell id="d2dQK03Ckl_er2ROghQx-9" value="M(1)" style="text;html=1;strokeColor=none;fillColor=none;align=center;verticalAlign=middle;whiteSpace=wrap;rounded=0;" parent="1" vertex="1">
          <mxGeometry x="180" y="310" width="45" height="20" as="geometry" />
        </mxCell>
        <mxCell id="d2dQK03Ckl_er2ROghQx-25" value="refera" style="edgeStyle=orthogonalEdgeStyle;rounded=0;orthogonalLoop=1;jettySize=auto;html=1;exitX=1;exitY=0.5;exitDx=0;exitDy=0;entryX=0.5;entryY=0;entryDx=0;entryDy=0;" parent="1" source="d2dQK03Ckl_er2ROghQx-11" target="d2dQK03Ckl_er2ROghQx-14" edge="1">
          <mxGeometry relative="1" as="geometry">
            <mxPoint x="700" y="270" as="targetPoint" />
          </mxGeometry>
        </mxCell>
        <mxCell id="d2dQK03Ckl_er2ROghQx-11" value="&lt;b&gt;Tranzactii (efectuate)&lt;br&gt;&lt;br&gt;id_oferta#&lt;br&gt;id_cumparator#&lt;br&gt;data&lt;br&gt;&lt;/b&gt;" style="rounded=0;whiteSpace=wrap;html=1;align=left;" parent="1" vertex="1">
          <mxGeometry x="500" y="80" width="150" height="90" as="geometry" />
        </mxCell>
        <mxCell id="d2dQK03Ckl_er2ROghQx-14" value="&lt;b&gt;Oferte&lt;br&gt;&lt;br&gt;id_oferta#&lt;br&gt;bun&lt;br&gt;descriere&lt;br&gt;pret&lt;br&gt;cod_terminare (0 libera, 1 blocata temporar, 2 tranzactionata)&lt;br&gt;&lt;/b&gt;" style="rounded=0;whiteSpace=wrap;html=1;align=left;" parent="1" vertex="1">
          <mxGeometry x="610" y="310" width="280" height="132.5" as="geometry" />
        </mxCell>
        <mxCell id="d2dQK03Ckl_er2ROghQx-16" value="1" style="text;html=1;strokeColor=none;fillColor=none;align=center;verticalAlign=middle;whiteSpace=wrap;rounded=0;" parent="1" vertex="1">
          <mxGeometry x="340" y="350" width="45" height="20" as="geometry" />
        </mxCell>
        <mxCell id="d2dQK03Ckl_er2ROghQx-17" value="M(0)" style="text;html=1;strokeColor=none;fillColor=none;align=center;verticalAlign=middle;whiteSpace=wrap;rounded=0;" parent="1" vertex="1">
          <mxGeometry x="565" y="350" width="45" height="20" as="geometry" />
        </mxCell>
        <mxCell id="d2dQK03Ckl_er2ROghQx-20" value="1" style="text;html=1;strokeColor=none;fillColor=none;align=center;verticalAlign=middle;whiteSpace=wrap;rounded=0;" parent="1" vertex="1">
          <mxGeometry x="310" y="310" width="45" height="20" as="geometry" />
        </mxCell>
        <mxCell id="d2dQK03Ckl_er2ROghQx-22" value="M(0)" style="text;html=1;strokeColor=none;fillColor=none;align=center;verticalAlign=middle;whiteSpace=wrap;rounded=0;" parent="1" vertex="1">
          <mxGeometry x="450" y="100" width="45" height="20" as="geometry" />
        </mxCell>
        <mxCell id="d2dQK03Ckl_er2ROghQx-23" value="1" style="text;html=1;strokeColor=none;fillColor=none;align=center;verticalAlign=middle;whiteSpace=wrap;rounded=0;" parent="1" vertex="1">
          <mxGeometry x="650" y="100" width="45" height="20" as="geometry" />
        </mxCell>
        <mxCell id="d2dQK03Ckl_er2ROghQx-24" value="1" style="text;html=1;strokeColor=none;fillColor=none;align=center;verticalAlign=middle;whiteSpace=wrap;rounded=0;" parent="1" vertex="1">
          <mxGeometry x="750" y="290" width="45" height="20" as="geometry" />
        </mxCell>
      </root>
    </mxGraphModel>
  </diagram>
</mxfile>
